<svg xmlns="http://www.w3.org/2000/svg" viewBox="0 0 600 900" width="600" height="900"><defs><pattern id="p" width="120" height="120" patternUnits="userSpaceOnUse" patternTransform="scale(1.7)"><rect width="120" height="120" fill="#EFE4CC"/><g transform="translate(30 28) rotate(-12)"><path d="M0 6 Q2 16 -3 24" fill="none" stroke="#4A3326" stroke-width="1.4"/><path d="M-1 15 Q-10 12 -13 18 Q-6 21 -1 15 Z" fill="#6E7A45"/><path d="M1 19 Q10 17 12 23 Q5 25 1 19 Z" fill="#6E7A45"/><ellipse cx="0" cy="-6.5" rx="3.6" ry="6" fill="#9E2B25" transform="rotate(0)"/><ellipse cx="0" cy="-6.5" rx="3.6" ry="6" fill="#9E2B25" transform="rotate(72)"/><ellipse cx="0" cy="-6.5" rx="3.6" ry="6" fill="#9E2B25" transform="rotate(144)"/><ellipse cx="0" cy="-6.5" rx="3.6" ry="6" fill="#9E2B25" transform="rotate(216)"/><ellipse cx="0" cy="-6.5" rx="3.6" ry="6" fill="#9E2B25" transform="rotate(288)"/><circle r="3" fill="#D2A03A"/></g><g transform="translate(92 88) rotate(24)"><path d="M0 6 Q2 16 -3 24" fill="none" stroke="#4A3326" stroke-width="1.4"/><path d="M-1 15 Q-10 12 -13 18 Q-6 21 -1 15 Z" fill="#6E7A45"/><path d="M1 19 Q10 17 12 23 Q5 25 1 19 Z" fill="#6E7A45"/><ellipse cx="0" cy="-6.5" rx="3.6" ry="6" fill="#2C4470" transform="rotate(0)"/><ellipse cx="0" cy="-6.5" rx="3.6" ry="6" fill="#2C4470" transform="rotate(72)"/><ellipse cx="0" cy="-6.5" rx="3.6" ry="6" fill="#2C4470" transform="rotate(144)"/><ellipse cx="0" cy="-6.5" rx="3.6" ry="6" fill="#2C4470" transform="rotate(216)"/><ellipse cx="0" cy="-6.5" rx="3.6" ry="6" fill="#2C4470" transform="rotate(288)"/><circle r="3" fill="#D2A03A"/></g><circle cx="78" cy="22" r="1.6" fill="#2C4470"/><circle cx="16" cy="84" r="1.6" fill="#2C4470"/><circle cx="56" cy="60" r="1.6" fill="#2C4470"/><circle cx="108" cy="40" r="1.6" fill="#2C4470"/><circle cx="44" cy="108" r="1.6" fill="#2C4470"/></pattern></defs><rect width="600" height="900" fill="url(#p)"/></svg>