<svg xmlns="http://www.w3.org/2000/svg" viewBox="0 0 600 800" width="600" height="800"><defs><pattern id="p" width="80" height="66" patternUnits="userSpaceOnUse" patternTransform="scale(1.7)"><rect width="80" height="66" fill="#E6D6B5"/><rect x="0" y="0" width="16" height="60" fill="#2C4470"/><rect x="21" y="0" width="3" height="60" fill="#9E2B25"/><ellipse cx="50" cy="10" rx="3" ry="5" fill="#9E2B25" transform="rotate(0 50 15)"/><ellipse cx="50" cy="10" rx="3" ry="5" fill="#9E2B25" transform="rotate(90 50 15)"/><ellipse cx="50" cy="10" rx="3" ry="5" fill="#9E2B25" transform="rotate(180 50 15)"/><ellipse cx="50" cy="10" rx="3" ry="5" fill="#9E2B25" transform="rotate(270 50 15)"/><circle cx="50" cy="15" r="2.2" fill="#D2A03A"/><path d="M50 30 Q44 36 50 42 Q56 36 50 30 Z" fill="#6E7A45"/><ellipse cx="50" cy="43" rx="3" ry="5" fill="#9E2B25" transform="rotate(0 50 48)"/><ellipse cx="50" cy="43" rx="3" ry="5" fill="#9E2B25" transform="rotate(90 50 48)"/><ellipse cx="50" cy="43" rx="3" ry="5" fill="#9E2B25" transform="rotate(180 50 48)"/><ellipse cx="50" cy="43" rx="3" ry="5" fill="#9E2B25" transform="rotate(270 50 48)"/><circle cx="50" cy="48" r="2.2" fill="#D2A03A"/><rect x="76" y="0" width="1.5" height="60" fill="#4A3326"/></pattern></defs><rect width="600" height="800" fill="url(#p)"/></svg>