<svg xmlns="http://www.w3.org/2000/svg" viewBox="0 0 600 848" width="600" height="848"><rect width="600" height="848" fill="#ffffff"/><g fill="none" stroke="#1d1d1d" stroke-linecap="round" stroke-linejoin="round"><g stroke-width="7"><circle cx="300" cy="424" r="230"/><circle cx="300" cy="424" r="60"/><circle cx="300" cy="424" r="22"/><path d="M300 360 C346 314 340 234 300 202 C260 234 254 314 300 360 Z" transform="rotate(0 300 424)"/><path d="M300 360 C346 314 340 234 300 202 C260 234 254 314 300 360 Z" transform="rotate(45 300 424)"/><path d="M300 360 C346 314 340 234 300 202 C260 234 254 314 300 360 Z" transform="rotate(90 300 424)"/><path d="M300 360 C346 314 340 234 300 202 C260 234 254 314 300 360 Z" transform="rotate(135 300 424)"/><path d="M300 360 C346 314 340 234 300 202 C260 234 254 314 300 360 Z" transform="rotate(180 300 424)"/><path d="M300 360 C346 314 340 234 300 202 C260 234 254 314 300 360 Z" transform="rotate(225 300 424)"/><path d="M300 360 C346 314 340 234 300 202 C260 234 254 314 300 360 Z" transform="rotate(270 300 424)"/><path d="M300 360 C346 314 340 234 300 202 C260 234 254 314 300 360 Z" transform="rotate(315 300 424)"/><circle cx="300" cy="254" r="20" transform="rotate(22.5 300 424)"/><circle cx="300" cy="254" r="20" transform="rotate(67.5 300 424)"/><circle cx="300" cy="254" r="20" transform="rotate(112.5 300 424)"/><circle cx="300" cy="254" r="20" transform="rotate(157.5 300 424)"/><circle cx="300" cy="254" r="20" transform="rotate(202.5 300 424)"/><circle cx="300" cy="254" r="20" transform="rotate(247.5 300 424)"/><circle cx="300" cy="254" r="20" transform="rotate(292.5 300 424)"/><circle cx="300" cy="254" r="20" transform="rotate(337.5 300 424)"/></g></g></svg>